<svg xmlns="http://www.w3.org/2000/svg" viewBox="0 0 64 64" width="64" height="64">
  <!-- LearnX-Delftse app icon: an open book in the app's brand green -->
  <rect x="0" y="0" width="64" height="64" rx="15" fill="#5fbf38"/>
  <rect x="0" y="50" width="64" height="14" rx="0" fill="#48992a" opacity="0"/>
  <path d="M32 17 C24 12.5 16 13.5 11 17 V47 C16 43.5 24 42.5 32 47 C40 42.5 48 43.5 53 47 V17 C48 13.5 40 12.5 32 17 Z"
        fill="#ffffff"/>
  <path d="M32 17 V47" stroke="#5fbf38" stroke-width="2.4" stroke-linecap="round"/>
  <g stroke="#bfe5ac" stroke-width="2.2" stroke-linecap="round">
    <path d="M16 24 H28 M16 30 H28 M16 36 H27"/>
    <path d="M36 24 H48 M36 30 H48 M37 36 H48"/>
  </g>
  <circle cx="50" cy="16" r="6" fill="#2bb3f0"/>
  <circle cx="50" cy="16" r="6" fill="#2bb3f0" stroke="#fff" stroke-width="2"/>
</svg>
