<svg width="640" height="200" viewBox="0 0 640 200" fill="none" xmlns="http://www.w3.org/2000/svg" role="img" aria-label="LearnX-Delftse">
  <!-- panel: dark navy, shared across the LearnX series; keeps the green wordmark legible on light and dark backgrounds -->
  <rect x="0.5" y="0.5" width="639" height="199" rx="28" fill="#0A0E1A" stroke="#1B2336"/>
  <!-- icon tile -->
  <rect x="28" y="28" width="144" height="144" rx="32" fill="#0F1629"/>
  <rect x="28.5" y="28.5" width="143" height="143" rx="31.5" fill="none" stroke="#1B2336"/>
  <!-- open book mark (brand green), scaled from the app favicon -->
  <g transform="translate(28,28) scale(2.25)">
    <path d="M32 17 C24 12.5 16 13.5 11 17 V47 C16 43.5 24 42.5 32 47 C40 42.5 48 43.5 53 47 V17 C48 13.5 40 12.5 32 17 Z" fill="#5fbf38"/>
    <path d="M32 17 V47" stroke="#0F1629" stroke-width="2.4" stroke-linecap="round"/>
    <g stroke="#0F1629" stroke-width="2.2" stroke-linecap="round" opacity="0.85">
      <path d="M16 24 H28 M16 30 H28 M16 36 H27"/>
      <path d="M36 24 H48 M36 30 H48 M37 36 H48"/>
    </g>
    <circle cx="50" cy="16" r="6" fill="#2bb3f0" stroke="#0F1629" stroke-width="2"/>
  </g>
  <!-- wordmark -->
  <text x="204" y="102" font-family="'Segoe UI', 'Helvetica Neue', Arial, sans-serif" font-size="50" font-weight="700" fill="#5fbf38">LearnX-Delftse</text>
  <text x="206" y="138" font-family="'Segoe UI', 'Helvetica Neue', Arial, sans-serif" font-size="19" font-weight="500" letter-spacing="0.3" fill="#8a909c">Audio-first Dutch trainer &#183; Delft method</text>
</svg>
